<?xml version="1.0" encoding="UTF-8"?>
<svg xmlns="http://www.w3.org/2000/svg" xmlns:xlink="http://www.w3.org/1999/xlink" width="512" height="512" viewBox="0 0 58 58" version="1.1"><!-- Generator: Sketch 51.3 (57544) - http://www.bohemiancoding.com/sketch --><title>012 - Battery</title><desc>Created with Sketch.</desc><defs/><g id="Page-1" stroke="none" stroke-width="1" fill="none" fill-rule="evenodd"><g id="012---Battery" fill-rule="nonzero"><polygon id="Shape" fill="#2C2F38" points="2 19 2 53 56 53 56 19"/><path d="M10,3 C11.1045695,3 12,3.8954305 12,5 L12,8 L8,8 L8,5 C8,3.8954305 8.8954305,3 10,3 Z" id="Shape" fill="#BDC3C7"/><path d="M48,3 C49.1045695,3 50,3.8954305 50,5 L50,8 L46,8 L46,5 C46,3.8954305 46.8954305,3 48,3 Z" id="Shape" fill="#BDC3C7"/><path d="M40,5 L40,12 L36,12 L36,6 C35.9967052,4.89679813 35.1032019,4.0032948 34,4 L24,4 C22.8967981,4.0032948 22.0032948,4.89679813 22,6 L22,12 L18,12 L18,5 C18,2.23857625 20.2385763,6.66133815e-16 23,0 L35,0 C36.3260824,-1.11022302e-15 37.597852,0.526784202 38.5355339,1.46446609 C39.4732158,2.40214799 40,3.67391755 40,5 Z" id="Shape" fill="#4482C3"/><path d="M7,10 L3,10 C2.44771525,10 2,10.4477153 2,11 L2,16 L56,16 L56,11 C56,10.4477153 55.5522847,10 55,10 L51,10" id="Shape" fill="#95A5A5"/><path d="M8,7 L12,7 C12.5522847,7 13,7.44771525 13,8 L13,16 L7,16 L7,8 C7,7.44771525 7.44771525,7 8,7 Z" id="Shape" fill="#C03A2B"/><path d="M46,7 L50,7 C50.5522847,7 51,7.44771525 51,8 L51,16 L45,16 L45,8 C45,7.44771525 45.4477153,7 46,7 Z" id="Shape" fill="#4482C3"/><rect id="Rectangle-path" fill="#285680" x="0" y="14" width="58" height="7" rx="2"/><rect id="Rectangle-path" fill="#285680" x="0" y="51" width="58" height="7" rx="2"/><path d="M17,30 L17,32 C17,32.5522847 16.5522847,33 16,33 L14,33 L14,35 C14,35.5522847 13.5522847,36 13,36 L11,36 C10.4477153,36 10,35.5522847 10,35 L10,33 L8,33 C7.44771525,33 7,32.5522847 7,32 L7,30 C7,29.4477153 7.44771525,29 8,29 L10,29 L10,27 C10,26.4477153 10.4477153,26 11,26 L13,26 C13.5522847,26 14,26.4477153 14,27 L14,29 L16,29 C16.5522847,29 17,29.4477153 17,30 Z" id="Shape" fill="#7F8C8D"/><rect id="Rectangle-path" fill="#7F8C8D" transform="translate(46.000000, 31.000000) rotate(90.000000) translate(-46.000000, -31.000000) " x="44" y="26" width="4" height="10" rx="1"/><path d="M26,46 L29,37 L24.344,37 C24.0279458,37.0000219 23.730484,36.8506313 23.5417668,36.5971041 C23.3530496,36.3435768 23.2952924,36.015758 23.386,35.713 L25.786,27.713 C25.9127875,27.2898167 26.3022318,26.9999693 26.744,27 L30.656,27 C30.9720542,26.9999781 31.269516,27.1493687 31.4582332,27.4028959 C31.6469504,27.6564232 31.7047076,27.984242 31.614,28.287 L30.286,32.713 C30.1952924,33.015758 30.2530496,33.3435768 30.4417668,33.5971041 C30.630484,33.8506313 30.9279458,34.0000219 31.244,34 L33.865,34 C34.2529065,34.0001454 34.6057342,34.2246105 34.7702432,34.5759056 C34.9347521,34.9272008 34.8812602,35.3419424 34.633,35.64 L26,46 Z" id="Shape" fill="#7F8C8D"/><path d="M8,48 L6,48 C5.44771525,48 5,47.5522847 5,47 C5,46.4477153 5.44771525,46 6,46 L8,46 C8.55228475,46 9,46.4477153 9,47 C9,47.5522847 8.55228475,48 8,48 Z" id="Shape" fill="#2C2F38"/><path d="M19,48 L12,48 C11.4477153,48 11,47.5522847 11,47 C11,46.4477153 11.4477153,46 12,46 L19,46 C19.5522847,46 20,46.4477153 20,47 C20,47.5522847 19.5522847,48 19,48 Z" id="Shape" fill="#2C2F38"/></g></g></svg>
