<?xml version="1.0" encoding="iso-8859-1"?>
<!-- Generator: Adobe Illustrator 21.0.0, SVG Export Plug-In . SVG Version: 6.00 Build 0)  -->
<svg xmlns="http://www.w3.org/2000/svg" xmlns:xlink="http://www.w3.org/1999/xlink" version="1.1" id="Capa_1" x="0px" y="0px" viewBox="0 0 512 512" style="enable-background:new 0 0 512 512;" xml:space="preserve" width="512" height="512">
<g>
	<polygon style="fill:#579FFF;" points="306.346,129.588 306.346,475.049 266.066,502 92.801,502 52.52,475.049 52.52,129.588    92.801,102.637 266.066,102.637  "/>
	<polygon style="fill:#ADAAAF;" points="52.52,439.759 306.346,439.759 306.346,475.049 266.066,502 92.801,502 52.52,475.049  "/>
	<polygon style="fill:#ADAAAF;" points="306.346,164.883 52.519,164.882 52.519,129.592 92.799,102.641 266.066,102.642    306.346,129.594  "/>
	<rect x="367.704" y="234.612" style="fill:#ADAAAF;" width="91.777" height="75.118"/>
	<polygon style="fill:#ADAAAF;" points="440.237,203.526 440.237,177.161 413.592,177.161 386.947,177.161 386.947,203.526    367.704,234.612 413.592,234.612 459.48,234.612  "/>
	<path style="fill:#E8E7E9;" d="M421.671,359.319h-13.506c-12.627,0-22.864-10.236-22.864-22.864V309.73h59.234v26.725   C444.534,349.083,434.298,359.319,421.671,359.319z"/>
	<rect x="131.154" y="241.993" style="fill:#FFBD5A;" width="95.823" height="152.519"/>
	<rect x="158.228" y="208.896" style="fill:#FFBD5A;" width="41.714" height="33.097"/>
	<rect x="153.847" y="72.951" style="fill:#ADAAAF;" width="51.362" height="29.686"/>
	<path style="fill:#231F20;" d="M148.228,208.896v23.096h-17.074c-5.522,0-10,4.478-10,10v152.52c0,5.522,4.478,10,10,10h95.823   c5.522,0,10-4.478,10-10v-152.52c0-5.522-4.478-10-10-10h-17.035v-23.096c0-5.522-4.478-10-10-10h-41.714   C152.706,198.896,148.228,203.374,148.228,208.896z M216.977,334h-75.823v-34h75.823V334z M141.154,384.512V354h75.823v30.512   H141.154z M216.977,280h-75.823v-28.008h17.074h41.714h17.035V280z M168.228,218.896h21.714v13.096h-21.714V218.896z"/>
	<path style="fill:#231F20;" d="M124.819,174.68c4.034-0.818,7.237-4.103,7.91-8.171c0.672-4.063-1.305-8.235-4.872-10.291   c-3.667-2.115-8.411-1.655-11.591,1.146c-3.091,2.722-4.208,7.18-2.756,11.034C115.213,172.921,120.072,175.629,124.819,174.68z"/>
	<path style="fill:#231F20;" d="M469.473,234.477c-0.024-1.798-0.543-3.6-1.49-5.129l-17.746-28.666v-23.521c0-5.522-4.478-10-10-10   h-16.645V71.844C423.592,32.229,391.364,0,351.749,0H241.277c-36.602,0-66.877,27.52-71.274,62.951h-16.156   c-5.522,0-10,4.478-10,10v19.686H92.8c-1.98,0-3.915,0.588-5.562,1.688l-26.951,18.033l-13.328,8.918   c-2.774,1.856-4.439,4.974-4.439,8.312v0.001v35.289v274.881v35.29c0,3.338,1.665,6.455,4.439,8.312l40.28,26.951   C88.885,511.412,90.821,512,92.8,512h173.266c1.979,0,3.915-0.588,5.561-1.688l40.28-26.951c2.774-1.856,4.439-4.974,4.439-8.312   v-35.29V164.878v-35.289c0-3.338-1.665-6.455-4.438-8.312l-40.28-26.952c-1.646-1.101-3.581-1.688-5.562-1.688h-50.857V72.951   c0-5.522-4.478-10-10-10h-14.996C194.443,38.589,215.723,20,241.277,20h110.472c28.587,0,51.844,23.257,51.844,51.844v95.317   h-16.646c-5.522,0-10,4.478-10,10v23.521l-17.746,28.666c-0.968,1.563-1.497,3.425-1.497,5.264v75.119c0,5.522,4.478,10,10,10   h7.597v16.725c0,18.121,14.743,32.864,32.864,32.864h13.506c18.121,0,32.863-14.743,32.863-32.864V319.73h4.946   c5.522,0,10-4.478,10-10v-75.119C469.48,234.566,469.474,234.522,469.473,234.477z M296.346,469.708L263.029,492H95.837   L62.52,469.708v-19.949h233.826V469.708z M296.346,134.93v19.948H161.228c-5.522,0-10,4.478-10,10s4.478,10,10,10h135.118v254.881   H62.52V174.878h20.67c5.522,0,10-4.478,10-10s-4.478-10-10-10H62.52V134.93l33.317-22.293h58.01h51.361h57.82L296.346,134.93z    M195.208,92.637h-31.361v-9.686h31.361V92.637z M449.48,299.73h-4.946H385.3h-7.597v-55.119h71.776V299.73z M395.45,208.79   c0.979-1.581,1.497-3.404,1.497-5.264v-16.365h33.29v16.365c0,1.859,0.519,3.683,1.497,5.264l9.795,15.821h-55.874L395.45,208.79z    M434.534,336.455c0,7.094-5.771,12.864-12.863,12.864h-13.506c-7.094,0-12.864-5.771-12.864-12.864V319.73h9.617v11.21   c0,5.522,4.478,10,10,10s10-4.478,10-10v-11.21h9.616V336.455z"/>
</g>















</svg>
